<svg id="Layer_1" data-name="Layer 1" xmlns="http://www.w3.org/2000/svg" viewBox="0 0 100 100"><defs><style>.cls-1{fill:#c9ffec;}.cls-2{fill:#008a84;}</style></defs><title>ช่องวิญญาณนักรบ 2</title><rect class="cls-1" width="100" height="100"/><path class="cls-2" d="M104.24,81.13c-2.94-2-3.49-2.2-3.56-2.13L98.12,54.18s4.48-.39,5.27-6.52.92-10.54.92-10.54-5.93-2.31-9.22-2.24l-1.78,7.58h-3l-.68-8.19a35,35,0,0,0-4.86-.51,35,35,0,0,0-4.85.51l-.68,8.19h-3L74.4,34.88c-3.29-.07-9.22,2.24-9.22,2.24s.13,4.41.92,10.54,5.27,6.52,5.27,6.52L68.81,79c-.07-.07-.62.08-3.57,2.13C61.16,84,62,92.33,62,92.33h45.59S108.33,84,104.24,81.13Z" transform="translate(-34.74 -13.04)"/></svg>