<?xml version="1.0" encoding="utf-8"?>
<!-- Generator: Adobe Illustrator 24.0.0, SVG Export Plug-In . SVG Version: 6.00 Build 0)  -->
<svg version="1.1" id="Layer_1" xmlns="http://www.w3.org/2000/svg" xmlns:xlink="http://www.w3.org/1999/xlink" x="0px" y="0px"
	 viewBox="0 0 100 100" style="enable-background:new 0 0 100 100;" xml:space="preserve">
<style type="text/css">
	.st0{fill:#E9FFFA;}
	.st1{enable-background:new    ;}
	.st2{fill:#0096DF;}
</style>
<title>ช่องเกราะอัศวิน</title>
<rect class="st0" width="100" height="100"/>
<g class="st1">
	<path class="st2" d="M27.7,36h8.5v4.3h-4.3v21.3h4.3v4.3h-8.5V36z"/>
	<path class="st2" d="M53.2,44.5H40.4v-4.3h12.7c1.8,0,3.3,0.6,4.5,1.9c1.2,1.2,1.9,2.7,1.9,4.5c0,1.8-0.6,3.3-1.9,4.5
		C56.5,52.4,55,53,53.2,53h-2.1v1.1h-4.2v-5.3h6.4c0.6,0,1.1-0.2,1.5-0.6c0.4-0.4,0.6-0.9,0.6-1.5s-0.2-1.1-0.6-1.5
		C54.3,44.7,53.8,44.5,53.2,44.5z M48.9,61.5c-0.7,0-1.4-0.3-1.9-0.8c-0.5-0.5-0.8-1.1-0.8-1.9s0.3-1.4,0.8-1.9
		c0.5-0.5,1.1-0.8,1.9-0.8s1.4,0.3,1.9,0.8c0.5,0.5,0.8,1.1,0.8,1.9s-0.3,1.4-0.8,1.9C50.3,61.2,49.7,61.5,48.9,61.5z"/>
	<path class="st2" d="M68.1,40.3h-4.3V36h8.5v29.8h-8.5v-4.3h4.3V40.3z"/>
</g>
</svg>
