<svg id="Layer_1" data-name="Layer 1" xmlns="http://www.w3.org/2000/svg" viewBox="0 0 500 500"><defs><style>.cls-1{fill:#e9fffa;}.cls-2{fill:#ecffd4;}.cls-3{fill:#ffe9ed;}.cls-4{fill:#006a71;}.cls-5{fill:#c9ffec;}.cls-6{fill:#f15a29;}.cls-7{fill:#be3400;}.cls-8{fill:#ffc794;}.cls-9{fill:#ffc94a;}.cls-10{fill:#d49b00;}.cls-11{fill:#ffffac;}.cls-12{fill:#00262a;}.cls-13{fill:#74d8b4;}.cls-14{fill:#231f20;opacity:0.5;}.cls-15{fill:#f7941d;}.cls-16{fill:#f8f8f8;stroke:#464646;stroke-miterlimit:10;stroke-width:2px;}.cls-17{fill:#464646;}</style></defs><title>bishop-move</title><rect class="cls-1" y="400" width="100" height="100"/><rect class="cls-2" x="200" y="400" width="100" height="100"/><rect class="cls-2" x="400" y="400" width="100" height="100"/><rect class="cls-3" x="100" y="300" width="100" height="100"/><rect class="cls-1" x="300" y="300" width="100" height="100"/><rect class="cls-1" y="200" width="100" height="100"/><rect class="cls-4" x="100" y="200" width="100" height="100"/><rect class="cls-5" x="400" y="200" width="100" height="100"/><rect class="cls-2" x="100" y="100" width="100" height="100"/><rect class="cls-1" x="300" y="100" width="100" height="100"/><rect class="cls-3" width="100" height="100"/><rect class="cls-6" x="100" width="100" height="100"/><rect class="cls-2" x="200" width="100" height="100"/><rect class="cls-3" x="400" width="100" height="100"/><rect class="cls-6" x="100" y="400" width="100" height="100"/><rect class="cls-7" x="100" y="495" width="100" height="5"/><rect class="cls-8" x="100" y="400" width="100" height="5"/><rect class="cls-6" x="400" y="300" width="100" height="100"/><rect class="cls-7" x="400" y="395" width="100" height="5"/><rect class="cls-8" x="400" y="300" width="100" height="5"/><rect class="cls-6" x="400" y="100" width="100" height="100"/><rect class="cls-7" x="400" y="195" width="100" height="5"/><rect class="cls-8" x="400" y="100" width="100" height="5"/><rect class="cls-9" x="200" y="100" width="100" height="100"/><rect class="cls-10" x="200" y="195" width="100" height="5"/><rect class="cls-11" x="200" y="100" width="100" height="5"/><rect class="cls-9" x="200" y="300" width="100" height="100"/><rect class="cls-10" x="200" y="395" width="100" height="5"/><rect class="cls-11" x="200" y="300" width="100" height="5"/><rect class="cls-9" x="300" width="100" height="100"/><rect class="cls-10" x="300" y="95" width="100" height="5"/><rect class="cls-11" x="300" width="100" height="5"/><rect class="cls-9" y="300" width="100" height="100"/><rect class="cls-10" y="395" width="100" height="5"/><rect class="cls-11" y="300" width="100" height="5"/><rect class="cls-9" y="100" width="100" height="100"/><rect class="cls-12" x="100" y="295" width="100" height="5"/><rect class="cls-13" x="100" y="200" width="100" height="5"/><rect class="cls-10" y="195" width="100" height="5"/><rect class="cls-11" y="100" width="100" height="5"/><rect class="cls-7" x="100" y="95" width="100" height="5"/><rect class="cls-8" x="100" width="100" height="5"/><rect class="cls-9" x="300" y="400" width="100" height="100"/><rect class="cls-10" x="300" y="495" width="100" height="5"/><rect class="cls-11" x="300" y="400" width="100" height="5"/><rect class="cls-9" x="300" y="200" width="100" height="100"/><rect class="cls-10" x="300" y="295" width="100" height="5"/><rect class="cls-11" x="300" y="200" width="100" height="5"/><circle class="cls-14" cx="50" cy="50" r="25"/><circle class="cls-14" cx="150" cy="150" r="25"/><circle class="cls-14" cx="347.13" cy="347.13" r="25"/><circle class="cls-14" cx="450" cy="450" r="25"/><circle class="cls-14" cx="450" cy="50" r="25"/><circle class="cls-14" cx="347.13" cy="150" r="25"/><circle class="cls-14" cx="150" cy="347.13" r="25"/><circle class="cls-14" cx="50" cy="450" r="25"/><rect class="cls-2" x="200" y="200" width="100" height="100"/><path class="cls-15" d="M345.89,509.28l-3.21,11.88s-11.22-5.35-17.08-8.1c0,0,9.28-.44,13.64-.1,0,0-.83-8.66,6.72-3.93" transform="translate(-100 -300)"/><path class="cls-16" d="M360.31,524.31c-4.49,9-6.74,18.79-5.52,28.25h-9.58c-.41-14.33,3.09-27.19,12.19-38.5a8,8,0,1,0-14.08,7.24c-8.22,6.3-20.33,18.92-17.81,35.43C329,579.54,350,577.07,350,577.07s21,2.47,24.49-20.34C376.66,542.53,368,531.21,360.31,524.31Z" transform="translate(-100 -300)"/><path class="cls-16" d="M365.26,574H334.74c-6.46,0-14.23,2.9-14.23,7.53v9.37h59v-9.37C379.49,576.86,371.72,574,365.26,574Z" transform="translate(-100 -300)"/><circle class="cls-17" cx="248.26" cy="215.01" r="1.74"/></svg>