<svg width="500" height="500" xmlns="http://www.w3.org/2000/svg" xmlns:xlink="http://www.w3.org/1999/xlink" xml:space="preserve" overflow="hidden"><g><g><path d="M0 400 100 400 100 500 0 500Z" fill="#E9FFFA" fill-rule="nonzero" fill-opacity="1"/><path d="M200 400 300 400 300 500 200 500Z" fill="#ECFFD4" fill-rule="nonzero" fill-opacity="1"/><path d="M400 400 500 400 500 500 400 500Z" fill="#ECFFD4" fill-rule="nonzero" fill-opacity="1"/><path d="M100 300 200 300 200 400 100 400Z" fill="#FFE9ED" fill-rule="nonzero" fill-opacity="1"/><path d="M300 300 400 300 400 400 300 400Z" fill="#E9FFFA" fill-rule="nonzero" fill-opacity="1"/><path d="M0 200 100 200 100 300 0 300Z" fill="#E9FFFA" fill-rule="nonzero" fill-opacity="1"/><path d="M100 200 200 200 200 300 100 300Z" fill="#006A71" fill-rule="nonzero" fill-opacity="1"/><path d="M400 200 500 200 500 300 400 300Z" fill="#C9FFEC" fill-rule="nonzero" fill-opacity="1"/><path d="M100 100 200 100 200 200 100 200Z" fill="#ECFFD4" fill-rule="nonzero" fill-opacity="1"/><path d="M300 100 400 100 400 200 300 200Z" fill="#E9FFFA" fill-rule="nonzero" fill-opacity="1"/><path d="M0 0 100 0 100 100 0 100Z" fill="#FFE9ED" fill-rule="nonzero" fill-opacity="1"/><path d="M100 0 200 0 200 100 100 100Z" fill="#F15A29" fill-rule="nonzero" fill-opacity="1"/><path d="M200 0 300 0 300 100 200 100Z" fill="#ECFFD4" fill-rule="nonzero" fill-opacity="1"/><path d="M400 0 500 0 500 100 400 100Z" fill="#FFE9ED" fill-rule="nonzero" fill-opacity="1"/><path d="M100 400 200 400 200 500 100 500Z" fill="#F15A29" fill-rule="nonzero" fill-opacity="1"/><path d="M100 495 200 495 200 500 100 500Z" fill="#BE3400" fill-rule="nonzero" fill-opacity="1"/><path d="M100 400 200 400 200 405 100 405Z" fill="#FFC794" fill-rule="nonzero" fill-opacity="1"/><path d="M400 300 500 300 500 400 400 400Z" fill="#F15A29" fill-rule="nonzero" fill-opacity="1"/><path d="M400 395 500 395 500 400 400 400Z" fill="#BE3400" fill-rule="nonzero" fill-opacity="1"/><path d="M400 300 500 300 500 305 400 305Z" fill="#FFC794" fill-rule="nonzero" fill-opacity="1"/><path d="M400 100 500 100 500 200 400 200Z" fill="#F15A29" fill-rule="nonzero" fill-opacity="1"/><path d="M400 195 500 195 500 200 400 200Z" fill="#BE3400" fill-rule="nonzero" fill-opacity="1"/><path d="M400 100 500 100 500 105 400 105Z" fill="#FFC794" fill-rule="nonzero" fill-opacity="1"/><path d="M200 100 300 100 300 200 200 200Z" fill="#FFC94A" fill-rule="nonzero" fill-opacity="1"/><path d="M200 195 300 195 300 200 200 200Z" fill="#D49B00" fill-rule="nonzero" fill-opacity="1"/><path d="M200 100 300 100 300 105 200 105Z" fill="#FFFFAC" fill-rule="nonzero" fill-opacity="1"/><path d="M200 300 300 300 300 400 200 400Z" fill="#FFC94A" fill-rule="nonzero" fill-opacity="1"/><path d="M200 395 300 395 300 400 200 400Z" fill="#D49B00" fill-rule="nonzero" fill-opacity="1"/><path d="M200 300 300 300 300 305 200 305Z" fill="#FFFFAC" fill-rule="nonzero" fill-opacity="1"/><path d="M300 0 400 0 400 100 300 100Z" fill="#FFC94A" fill-rule="nonzero" fill-opacity="1"/><path d="M300 95 400 95 400 100 300 100Z" fill="#D49B00" fill-rule="nonzero" fill-opacity="1"/><path d="M300 0 400 0 400 5 300 5Z" fill="#FFFFAC" fill-rule="nonzero" fill-opacity="1"/><path d="M0 300 100 300 100 400 0 400Z" fill="#FFC94A" fill-rule="nonzero" fill-opacity="1"/><path d="M0 395 100 395 100 400 0 400Z" fill="#D49B00" fill-rule="nonzero" fill-opacity="1"/><path d="M0 300 100 300 100 305 0 305Z" fill="#FFFFAC" fill-rule="nonzero" fill-opacity="1"/><path d="M0 100 100 100 100 200 0 200Z" fill="#FFC94A" fill-rule="nonzero" fill-opacity="1"/><path d="M100 295 200 295 200 300 100 300Z" fill="#00262A" fill-rule="nonzero" fill-opacity="1"/><path d="M100 200 200 200 200 205 100 205Z" fill="#74D8B4" fill-rule="nonzero" fill-opacity="1"/><path d="M0 195 100 195 100 200 0 200Z" fill="#D49B00" fill-rule="nonzero" fill-opacity="1"/><path d="M0 100 100 100 100 105 0 105Z" fill="#FFFFAC" fill-rule="nonzero" fill-opacity="1"/><path d="M100 95 200 95 200 100 100 100Z" fill="#BE3400" fill-rule="nonzero" fill-opacity="1"/><path d="M100 0 200 0 200 5 100 5Z" fill="#FFC794" fill-rule="nonzero" fill-opacity="1"/><path d="M300 400 400 400 400 500 300 500Z" fill="#FFC94A" fill-rule="nonzero" fill-opacity="1"/><path d="M300 495 400 495 400 500 300 500Z" fill="#D49B00" fill-rule="nonzero" fill-opacity="1"/><path d="M300 400 400 400 400 405 300 405Z" fill="#FFFFAC" fill-rule="nonzero" fill-opacity="1"/><path d="M300 200 400 200 400 300 300 300Z" fill="#FFC94A" fill-rule="nonzero" fill-opacity="1"/><path d="M300 295 400 295 400 300 300 300Z" fill="#D49B00" fill-rule="nonzero" fill-opacity="1"/><path d="M300 200 400 200 400 205 300 205Z" fill="#FFFFAC" fill-rule="nonzero" fill-opacity="1"/><path d="M200 200 300 200 300 300 200 300Z" fill="#ECFFD4" fill-rule="nonzero" fill-opacity="1"/><path d="M219.13 219.86 219.13 232.49C219.13 232.49 208.53 230.21 203 229.08 203 229.08 210.66 226.14 214.38 225.3 214.38 225.3 211.72 216.96 219.11 219.6" fill="#F7941D" fill-rule="nonzero" fill-opacity="1"/><path d="M281.77 245.24C281.77 245.24 281.2 278.31 254.71 278.31 228.22 278.31 227.71 266.31 227.71 261.07 227.71 255.83 233.24 240.57 232.86 236.86 232.48 233.15 221.33 234.76 219.38 231.86 217.43 228.96 216.53 222.72 219.21 220.52 221.89 218.32 229.29 218.19 235.05 219.86 240.81 221.53 245.63 228.96 246.44 232.86 247.167 236.788 248.119 240.671 249.29 244.49 257.068 240.519 265.917 239.155 274.53 240.6 274.861 242.562 274.834 244.568 274.45 246.52 278.68 245.83 281.77 245.24 281.77 245.24Z" stroke="#464646" stroke-width="2" stroke-linecap="butt" stroke-linejoin="miter" stroke-miterlimit="10" stroke-opacity="1" fill="#F8F8F8" fill-rule="nonzero" fill-opacity="1"/><path d="M249.31 244.49C245.477 246.399 241.992 248.938 239 252" stroke="#464646" stroke-width="2" stroke-linecap="round" stroke-linejoin="miter" stroke-miterlimit="10" stroke-opacity="1" fill="none" fill-rule="nonzero"/><path d="M265.31 274 234.79 274C228.33 274 220.56 276.9 220.56 281.53L220.56 290.9 279.56 290.9 279.56 281.53C279.54 276.86 271.77 274 265.31 274Z" stroke="#464646" stroke-width="2" stroke-linecap="butt" stroke-linejoin="miter" stroke-miterlimit="10" stroke-opacity="1" fill="#F8F8F8" fill-rule="nonzero" fill-opacity="1"/><path d="M225.6 225.11C225.6 226.071 224.821 226.85 223.86 226.85 222.899 226.85 222.12 226.071 222.12 225.11 222.12 224.149 222.899 223.37 223.86 223.37 224.821 223.37 225.6 224.149 225.6 225.11Z" fill="#464646" fill-rule="nonzero" fill-opacity="1"/><path d="M274.47 246.52C273.47 252.3 269.39 261.15 254.83 267.52" stroke="#464646" stroke-width="2" stroke-linecap="round" stroke-linejoin="miter" stroke-miterlimit="10" stroke-opacity="1" fill="none" fill-rule="nonzero"/><path d="M175 50C175 63.8071 163.807 75 150 75 136.193 75 125 63.8071 125 50 125 36.1929 136.193 25 150 25 163.807 25 175 36.1929 175 50Z" fill="#231F20" fill-rule="nonzero" fill-opacity="0.5"/><path d="M75 150C75 163.807 63.8071 175 50 175 36.1929 175 25 163.807 25 150 25 136.193 36.1929 125 50 125 63.8071 125 75 136.193 75 150Z" fill="#231F20" fill-rule="nonzero" fill-opacity="0.5"/><path d="M75 350C75 363.807 63.8071 375 50 375 36.1929 375 25 363.807 25 350 25 336.193 36.1929 325 50 325 63.8071 325 75 336.193 75 350Z" fill="#231F20" fill-rule="nonzero" fill-opacity="0.5"/><path d="M175 450C175 463.807 163.807 475 150 475 136.193 475 125 463.807 125 450 125 436.193 136.193 425 150 425 163.807 425 175 436.193 175 450Z" fill="#231F20" fill-rule="nonzero" fill-opacity="0.5"/><path d="M375 450C375 463.807 363.807 475 350 475 336.193 475 325 463.807 325 450 325 436.193 336.193 425 350 425 363.807 425 375 436.193 375 450Z" fill="#231F20" fill-rule="nonzero" fill-opacity="0.5"/><path d="M475 350C475 363.807 463.807 375 450 375 436.193 375 425 363.807 425 350 425 336.193 436.193 325 450 325 463.807 325 475 336.193 475 350Z" fill="#231F20" fill-rule="nonzero" fill-opacity="0.5"/><path d="M475 150C475 163.807 463.807 175 450 175 436.193 175 425 163.807 425 150 425 136.193 436.193 125 450 125 463.807 125 475 136.193 475 150Z" fill="#231F20" fill-rule="nonzero" fill-opacity="0.5"/><path d="M375 50C375 63.8071 363.807 75 350 75 336.193 75 325 63.8071 325 50 325 36.1929 336.193 25 350 25 363.807 25 375 36.1929 375 50Z" fill="#231F20" fill-rule="nonzero" fill-opacity="0.5"/></g></g></svg>