<svg width="200" height="200" viewBox="0 0 200 200" fill="none" xmlns="http://www.w3.org/2000/svg">
<g clip-path="url(#clip0_6_2)">
<path d="M200 0H0V200H200V0Z" fill="#FFE9ED"/>
<path d="M60.5859 83.9091L69.4723 99.0739L78.3586 83.9091H84.9268L72.9495 102.455L84.9268 121H78.3586L69.4723 106.608L60.5859 121H54.0177L65.8018 102.455L54.0177 83.9091H60.5859ZM100.496 107.091V106.801C100.528 103.726 100.85 101.279 101.462 99.4602C102.074 97.6411 102.943 96.1681 104.07 95.0412C105.197 93.9143 106.549 92.8759 108.127 91.9261C109.077 91.3466 109.93 90.6624 110.686 89.8736C111.443 89.0687 112.039 88.143 112.473 87.0966C112.924 86.0502 113.149 84.8911 113.149 83.6193C113.149 82.0417 112.779 80.6733 112.039 79.5142C111.298 78.3551 110.308 77.4616 109.069 76.8338C107.829 76.206 106.453 75.892 104.939 75.892C103.619 75.892 102.347 76.1657 101.124 76.7131C99.9004 77.2604 98.8782 78.1217 98.0571 79.2969C97.2361 80.4721 96.7612 82.0095 96.6324 83.9091H90.5472C90.676 81.1723 91.3843 78.83 92.6722 76.8821C93.9762 74.9342 95.6907 73.4451 97.8157 72.4148C99.9568 71.3845 102.331 70.8693 104.939 70.8693C107.773 70.8693 110.236 71.4328 112.328 72.5597C114.437 73.6866 116.063 75.232 117.206 77.196C118.365 79.16 118.945 81.3977 118.945 83.9091C118.945 85.6799 118.671 87.2817 118.124 88.7145C117.593 90.1473 116.82 91.4271 115.806 92.554C114.808 93.6809 113.6 94.679 112.184 95.5483C110.767 96.4337 109.632 97.3674 108.779 98.3494C107.926 99.3153 107.306 100.466 106.919 101.803C106.533 103.139 106.324 104.805 106.292 106.801V107.091H100.496ZM103.587 121.386C102.396 121.386 101.373 120.96 100.52 120.107C99.667 119.253 99.2404 118.231 99.2404 117.04C99.2404 115.848 99.667 114.826 100.52 113.973C101.373 113.12 102.396 112.693 103.587 112.693C104.778 112.693 105.801 113.12 106.654 113.973C107.507 114.826 107.934 115.848 107.934 117.04C107.934 117.829 107.732 118.553 107.33 119.213C106.944 119.873 106.42 120.404 105.76 120.807C105.116 121.193 104.392 121.386 103.587 121.386Z" fill="#FF35DF"/>
</g>
<defs>
<clipPath id="clip0_6_2">
<rect width="200" height="200" fill="white"/>
</clipPath>
</defs>
</svg>
