<svg id="Layer_1" data-name="Layer 1" xmlns="http://www.w3.org/2000/svg" viewBox="0 0 100 100"><defs><style>.cls-1{fill:#94ffee;}.cls-2{fill:#00f4d5;}.cls-3{fill:#fff;}</style></defs><title>ช่องบ่อน้ำที่สิ้นสุด</title><rect class="cls-1" width="100" height="100"/><rect class="cls-2" width="100" height="5"/><rect class="cls-3" y="35" width="10" height="10"/><rect class="cls-3" x="10" y="45" width="10" height="10"/><rect class="cls-3" y="55" width="10" height="10"/><rect class="cls-3" x="20" y="35" width="10" height="10"/><rect class="cls-3" x="30" y="45" width="10" height="10"/><rect class="cls-3" x="20" y="55" width="10" height="10"/><rect class="cls-3" x="40" y="35" width="10" height="10"/><rect class="cls-3" x="40" y="55" width="10" height="10"/><rect class="cls-3" x="50" y="45" width="10" height="10"/><rect class="cls-3" x="60" y="35" width="10" height="10"/><rect class="cls-3" x="60" y="55" width="10" height="10"/><rect class="cls-3" x="70" y="45" width="10" height="10"/><rect class="cls-3" x="80" y="35" width="10" height="10"/><rect class="cls-3" x="80" y="55" width="10" height="10"/><rect class="cls-3" x="90" y="45" width="10" height="10"/></svg>