<svg id="Layer_1" data-name="Layer 1" xmlns="http://www.w3.org/2000/svg" viewBox="0 0 500 500"><defs><style>.cls-1{fill:#e9fffa;}.cls-2{fill:#ecffd4;}.cls-3{fill:#ffe9ed;}.cls-4{fill:#006a71;}.cls-5{fill:#c9ffec;}.cls-6{fill:#f15a29;}.cls-7{fill:#be3400;}.cls-8{fill:#ffc794;}.cls-9{fill:#ffc94a;}.cls-10{fill:#d49b00;}.cls-11{fill:#ffffac;}.cls-12{fill:#00262a;}.cls-13{fill:#74d8b4;}.cls-14{fill:#231f20;opacity:0.5;}.cls-15{fill:#f7941d;}.cls-16{fill:#f8f8f8;stroke:#464646;stroke-miterlimit:10;stroke-width:2px;}.cls-17{fill:#464646;}</style></defs><title>rook-move</title><rect class="cls-1" y="400" width="100" height="100"/><rect class="cls-2" x="200" y="400" width="100" height="100"/><rect class="cls-2" x="400" y="400" width="100" height="100"/><rect class="cls-3" x="100" y="300" width="100" height="100"/><rect class="cls-1" x="300" y="300" width="100" height="100"/><rect class="cls-1" y="200" width="100" height="100"/><rect class="cls-4" x="100" y="200" width="100" height="100"/><rect class="cls-5" x="400" y="200" width="100" height="100"/><rect class="cls-2" x="100" y="100" width="100" height="100"/><rect class="cls-1" x="300" y="100" width="100" height="100"/><rect class="cls-3" width="100" height="100"/><rect class="cls-6" x="100" width="100" height="100"/><rect class="cls-2" x="200" width="100" height="100"/><rect class="cls-3" x="400" width="100" height="100"/><rect class="cls-6" x="100" y="400" width="100" height="100"/><rect class="cls-7" x="100" y="495" width="100" height="5"/><rect class="cls-8" x="100" y="400" width="100" height="5"/><rect class="cls-6" x="400" y="300" width="100" height="100"/><rect class="cls-7" x="400" y="395" width="100" height="5"/><rect class="cls-8" x="400" y="300" width="100" height="5"/><rect class="cls-6" x="400" y="100" width="100" height="100"/><rect class="cls-7" x="400" y="195" width="100" height="5"/><rect class="cls-8" x="400" y="100" width="100" height="5"/><rect class="cls-9" x="200" y="100" width="100" height="100"/><rect class="cls-10" x="200" y="195" width="100" height="5"/><rect class="cls-11" x="200" y="100" width="100" height="5"/><rect class="cls-9" x="200" y="300" width="100" height="100"/><rect class="cls-10" x="200" y="395" width="100" height="5"/><rect class="cls-11" x="200" y="300" width="100" height="5"/><rect class="cls-9" x="300" width="100" height="100"/><rect class="cls-10" x="300" y="95" width="100" height="5"/><rect class="cls-11" x="300" width="100" height="5"/><rect class="cls-9" y="300" width="100" height="100"/><rect class="cls-10" y="395" width="100" height="5"/><rect class="cls-11" y="300" width="100" height="5"/><rect class="cls-9" y="100" width="100" height="100"/><rect class="cls-12" x="100" y="295" width="100" height="5"/><rect class="cls-13" x="100" y="200" width="100" height="5"/><rect class="cls-10" y="195" width="100" height="5"/><rect class="cls-11" y="100" width="100" height="5"/><rect class="cls-7" x="100" y="95" width="100" height="5"/><rect class="cls-8" x="100" width="100" height="5"/><rect class="cls-9" x="300" y="400" width="100" height="100"/><rect class="cls-10" x="300" y="495" width="100" height="5"/><rect class="cls-11" x="300" y="400" width="100" height="5"/><rect class="cls-9" x="300" y="200" width="100" height="100"/><rect class="cls-10" x="300" y="295" width="100" height="5"/><rect class="cls-11" x="300" y="200" width="100" height="5"/><circle class="cls-14" cx="50" cy="250" r="25"/><circle class="cls-14" cx="150" cy="250" r="25"/><circle class="cls-14" cx="347.13" cy="250" r="25"/><circle class="cls-14" cx="450" cy="250" r="25"/><circle class="cls-14" cx="250" cy="50" r="25"/><circle class="cls-14" cx="250" cy="150" r="25"/><circle class="cls-14" cx="250" cy="347.13" r="25"/><circle class="cls-14" cx="250" cy="450" r="25"/><rect class="cls-2" x="200" y="200" width="100" height="100"/><path class="cls-15" d="M331.88,544.62l-1.33,13.8s-11.34-3.63-17.26-5.47c0,0,8.69-2.38,12.85-2.9,0,0-2-9.4,5.77-5.71" transform="translate(-100 -300)"/><path class="cls-16" d="M365.49,574.07H335c-6.46,0-14.23,2.89-14.23,7.53V591h59V581.6C379.73,577,372,574.07,365.49,574.07Z" transform="translate(-100 -300)"/><path class="cls-16" d="M375.26,520.88a19.93,19.93,0,0,0-10.15-2.49l-2,9.44h-5L356.78,517s-3.35-.22-6.54-.22-6.54.22-6.54.22l-1.25,10.85h-5l-2-9.44a19.93,19.93,0,0,0-10.15,2.49s-.07,5.68.32,11,2.68,8,6,9,12.32-.45,18.7-.45,15.38,1.41,18.7.45,5.62-3.64,6-9S375.26,520.88,375.26,520.88Z" transform="translate(-100 -300)"/><path class="cls-16" d="M350.24,574.07h15.25a24.19,24.19,0,0,1,5.32.61l-3-33.56c-3.9.5-11.82-.65-17.6-.65s-13.7,1.15-17.61.65l-3,33.56a24.17,24.17,0,0,1,5.31-.61Z" transform="translate(-100 -300)"/><circle class="cls-17" cx="239.6" cy="250.03" r="2.7"/></svg>