<svg id="Layer_1" data-name="Layer 1" xmlns="http://www.w3.org/2000/svg" viewBox="0 0 100 100"><defs><style>.cls-1{fill:#006a71;}.cls-2{fill:#00262a;}.cls-3{fill:#74d8b4;}.cls-4{fill:#c9ffec;}</style></defs><title>ช่องวิญญาณนักรบ</title><rect class="cls-1" width="100" height="100"/><rect class="cls-2" y="95" width="100" height="5"/><rect class="cls-3" width="100" height="5"/><path class="cls-4" d="M14,107.35a12.63,12.63,0,0,0-7.92-2.85s6.24-4.58,6.24-17.59c0-7.49-5.34-14.48-10.27-19.07C-1.75,74.7-2.23,82.52-2.45,89H-9.34A50.36,50.36,0,0,1,.5,59.2a6.65,6.65,0,0,0-6.39-4.84A6.65,6.65,0,0,0-12.54,61a6.61,6.61,0,0,0,1.62,4.34c-5.45,4.24-13.19,12.55-13.19,21.56,0,13,6.24,17.59,6.24,17.59a12.59,12.59,0,0,0-7.91,2.85c-3.87,3.09-2.13,10.33-2.13,10.33h44S17.86,110.44,14,107.35Z" transform="translate(55.89 -36.02)"/></svg>